<?xml version="1.0" encoding="utf-8" ?>	<!-- Generator: Assembly 2.4 - http://assemblyapp.co -->	<svg version="1.1" xmlns="http://www.w3.org/2000/svg" xmlns:xlink="http://www.w3.org/1999/xlink" width="60.00" height="60.00" viewBox="0 0 60.0 60.0">		<g id="document" transform="scale(0.26666666666666666 0.26666666666666666) translate(112.5 112.55647590361446)">			<path d="M68.0368,-2.66454e-15 C68.0368,-37.5757 37.5757,-68.0368 -1.06581e-14,-68.0368 C-37.5757,-68.0368 -68.0368,-37.5757 -68.0368,-2.66454e-15 C-68.0368,37.5757 -37.5757,68.0368 -1.06581e-14,68.0368 C37.5757,68.0368 68.0368,37.5757 68.0368,-2.66454e-15 Z " fill="#911eb4" fill-opacity="1.00" stroke-width="3.35" stroke="#0af2dd" stroke-linecap="square" stroke-linejoin="miter" />			<path d="M62.8767,7.12485 C66.8678,-27.3886 42.1245,-58.6026 7.61114,-62.5937 C-26.9023,-66.5847 -58.1163,-41.8415 -62.1074,-7.32808 C-66.0984,27.1853 -41.3552,58.3994 -6.84179,62.3904 C27.6716,66.3815 58.8856,41.6382 62.8767,7.12485 Z " fill="#000000" fill-opacity="1.00" stroke-width="3.35" stroke="#ffffff" stroke-linecap="square" stroke-linejoin="miter" />			<path d="M-25.6394,-35.42 L-26.1284,-30.5667 L-31.0672,-30.579 L-30.9449,-31.7648 L-33.3777,-31.7648 L-33.9889,-25.6646 L-31.5439,-25.6524 L-31.4095,-26.8871 L-26.4951,-26.8993 L-27.0086,-21.9849 L-39.2211,-21.9972 L-37.8886,-35.42 L-25.6394,-35.42 Z M-15.3274,-35.4077 L-16.3054,-25.6524 L-18.7259,-25.6524 L-17.7479,-35.42 L-22.6256,-35.42 L-23.9703,-21.9727 L-16.6599,-21.9605 L-16.7944,-20.738 L-24.1048,-20.7258 L-24.4593,-17.1073 L-12.2712,-17.1073 L-10.4375,-35.42 L-15.3274,-35.4077 Z M3.39522,-21.9727 L4.73995,-35.4322 L-1.37243,-35.4322 L-1.72695,-31.7403 L-0.504475,-31.7403 L-1.11571,-25.6279 L-3.56066,-25.6279 L-1.95922,-41.5079 L-8.1205,-41.5079 L-8.47502,-37.8894 L-7.21587,-37.8771 L-8.79286,-21.9727 L3.39522,-21.9727 Z M19.9541,-35.42 L19.5873,-31.7403 L17.8392,-26.8504 L12.9615,-26.8626 L14.7096,-31.7648 L12.2525,-31.7648 L11.6412,-25.6646 L18.9761,-25.6646 L18.5971,-21.9849 L6.40903,-21.9972 L7.74153,-35.42 L19.9541,-35.42 Z M35.1804,-35.4566 L34.5569,-29.3076 L29.6548,-29.3076 L29.8993,-31.7648 L27.4666,-31.7648 L26.4642,-21.9849 L21.6109,-21.9972 L22.9556,-35.4566 L35.1804,-35.4566 Z M-20.6386,-6.73253 L-21.9711,6.69026 L-17.1057,6.69026 L-14.3673,4.23308 L-14.6485,6.70248 L-9.78307,6.70248 L-8.42612,-6.73253 L-20.6386,-6.73253 Z M-14.2573,3.03505 L-16.739,3.02283 L-16.1277,-3.07732 L-13.6705,-3.07732 L-14.2573,3.03505 Z M-5.42453,-6.7692 L-6.76926,6.69026 L-1.91603,6.70248 L-0.913597,-3.07732 L1.51913,-3.07732 L1.27463,-0.620149 L6.17676,-0.620149 L6.80022,-6.7692 L-5.42453,-6.7692 Z M15.7797,6.70248 L16.122,3.03505 L13.6771,3.03505 L14.2883,-3.07732 L16.7944,-3.08955 L17.1611,-6.75698 L14.6673,-6.7692 L14.8995,-9.1897 L10.0096,-9.17748 L8.44486,6.69026 L15.7797,6.70248 Z M-37.9008,21.9549 L-39.7223,40.2676 L-34.8446,40.2798 L-33.3899,25.6101 L-30.9572,25.6101 L-31.5684,31.7225 L-32.7786,31.7225 L-33.1576,35.4021 L-27.0575,35.4021 L-25.7127,21.9549 L-37.9008,21.9549 Z M-22.7112,21.9549 L-24.0437,35.3777 L-11.88,35.3899 L-10.5231,21.9549 L-22.7112,21.9549 Z M-16.3665,31.7225 L-18.8115,31.7103 L-18.2002,25.6101 L-15.7675,25.6101 L-16.3665,31.7225 Z M-7.53371,21.9182 L-8.87843,35.3777 L-4.0252,35.3899 L-3.02277,25.6101 L-0.590048,25.6101 L-0.834543,28.0673 L4.06758,28.0673 L4.69105,21.9182 L-7.53371,21.9182 Z M6.33568,35.3777 L7.90045,19.51 L12.7904,19.4977 L12.5581,21.9182 L15.0519,21.9305 L14.6852,25.5979 L12.1791,25.6101 L11.5679,31.7225 L14.0128,31.7225 L13.6705,35.3899 L6.33568,35.3777 Z M18.0168,21.9549 L16.6843,35.3777 L21.5498,35.3777 L24.2881,32.9205 L24.007,35.3899 L28.8724,35.3899 L30.2294,21.9549 L18.0168,21.9549 Z M24.3982,31.7225 L21.9165,31.7103 L22.5278,25.6101 L24.985,25.6101 L24.3982,31.7225 Z M31.8862,35.4021 L33.4632,19.4977 L32.2041,19.4855 L32.5586,15.867 L38.7199,15.867 L36.7517,35.3777 L31.8862,35.4021 Z " fill="#ffffff" fill-opacity="1.00" />			<path d="M-23.2344,-35.192 L-23.7234,-30.3388 L-28.6622,-30.351 L-28.5399,-31.5368 L-30.9726,-31.5368 L-31.5839,-25.4366 L-29.1389,-25.4244 L-29.0045,-26.6591 L-24.0901,-26.6713 L-24.6035,-21.757 L-36.8161,-21.7692 L-35.4836,-35.192 L-23.2344,-35.192 Z M-12.9224,-35.1798 L-13.9004,-25.4244 L-16.3209,-25.4244 L-15.3429,-35.192 L-20.2206,-35.192 L-21.5653,-21.7448 L-14.2549,-21.7325 L-14.3894,-20.5101 L-21.6998,-20.4978 L-22.0543,-16.8793 L-9.86619,-16.8793 L-8.03248,-35.192 L-12.9224,-35.1798 Z M5.80024,-21.7448 L7.14496,-35.2042 L1.03258,-35.2042 L0.678066,-31.5123 L1.90054,-31.5123 L1.2893,-25.4 L-1.15565,-25.4 L0.445796,-41.2799 L-5.71548,-41.2799 L-6.07,-37.6614 L-4.81085,-37.6492 L-6.38784,-21.7448 L5.80024,-21.7448 Z M22.3591,-35.192 L21.9923,-31.5123 L20.2442,-26.6224 L15.3665,-26.6347 L17.1147,-31.5368 L14.6575,-31.5368 L14.0462,-25.4366 L21.3811,-25.4366 L21.0021,-21.757 L8.81405,-21.7692 L10.1465,-35.192 L22.3591,-35.192 Z M37.5854,-35.2287 L36.962,-29.0796 L32.0598,-29.0796 L32.3043,-31.5368 L29.8716,-31.5368 L28.8692,-21.757 L24.0159,-21.7692 L25.3607,-35.2287 L37.5854,-35.2287 Z M-18.2336,-6.50456 L-19.5661,6.91822 L-14.7007,6.91822 L-11.9623,4.46105 L-12.2435,6.93045 L-7.37805,6.93045 L-6.0211,-6.50456 L-18.2336,-6.50456 Z M-11.8523,3.26302 L-14.3339,3.2508 L-13.7227,-2.84936 L-11.2655,-2.84936 L-11.8523,3.26302 Z M-3.01951,-6.54123 L-4.36424,6.91822 L0.48899,6.93045 L1.49142,-2.84936 L3.92415,-2.84936 L3.67965,-0.39218 L8.58178,-0.39218 L9.20524,-6.54123 L-3.01951,-6.54123 Z M18.1847,6.93045 L18.527,3.26302 L16.0821,3.26302 L16.6933,-2.84936 L19.1994,-2.86158 L19.5661,-6.52901 L17.0723,-6.54123 L17.3046,-8.96173 L12.4146,-8.94951 L10.8499,6.91822 L18.1847,6.93045 Z M-35.4958,22.1829 L-37.3173,40.4956 L-32.4396,40.5078 L-30.9849,25.8381 L-28.5521,25.8381 L-29.1634,31.9505 L-30.3736,31.9505 L-30.7526,35.6301 L-24.6524,35.6301 L-23.3077,22.1829 L-35.4958,22.1829 Z M-20.3061,22.1829 L-21.6386,35.6057 L-9.475,35.6179 L-8.11805,22.1829 L-20.3061,22.1829 Z M-13.9615,31.9505 L-16.4064,31.9382 L-15.7952,25.8381 L-13.3625,25.8381 L-13.9615,31.9505 Z M-5.12869,22.1462 L-6.47342,35.6057 L-1.62019,35.6179 L-0.617758,25.8381 L1.81497,25.8381 L1.57047,28.2952 L6.4726,28.2952 L7.09606,22.1462 L-5.12869,22.1462 Z M8.7407,35.6057 L10.3055,19.7379 L15.1954,19.7257 L14.9631,22.1462 L17.457,22.1584 L17.0902,25.8258 L14.5841,25.8381 L13.9729,31.9505 L16.4178,31.9505 L16.0756,35.6179 L8.7407,35.6057 Z M20.4219,22.1829 L19.0894,35.6057 L23.9548,35.6057 L26.6932,33.1485 L26.412,35.6179 L31.2774,35.6179 L32.6344,22.1829 L20.4219,22.1829 Z M26.8032,31.9505 L24.3216,31.9382 L24.9328,25.8381 L27.39,25.8381 L26.8032,31.9505 Z M34.2913,35.6301 L35.8683,19.7257 L34.6091,19.7135 L34.9636,16.0949 L41.1249,16.0949 L39.1567,35.6057 L34.2913,35.6301 Z " fill="#911eb4" fill-opacity="1.00" />			<path d="M-37.8886,-36.0495 L-39.2211,-22.6267 L-27.0086,-22.6145 L-26.4951,-27.5289 L-31.4095,-27.5167 L-31.5439,-26.2819 L-33.9889,-26.2942 L-33.3777,-32.3943 L-30.9449,-32.3943 L-31.0672,-31.2085 L-26.1284,-31.1963 L-25.6394,-36.0495 L-37.8886,-36.0495 Z M-15.3274,-36.0373 L-16.3054,-26.2819 L-18.7259,-26.2819 L-17.7479,-36.0495 L-22.6256,-36.0495 L-23.9703,-22.6023 L-16.6599,-22.5901 L-16.7944,-21.3676 L-24.1048,-21.3554 L-24.4593,-17.7368 L-12.2712,-17.7368 L-10.4375,-36.0495 L-15.3274,-36.0373 Z M3.39522,-22.6023 L4.73995,-36.0618 L-1.37243,-36.0618 L-1.72695,-32.3699 L-0.504474,-32.3699 L-1.11571,-26.2575 L-3.56066,-26.2575 L-1.95922,-42.1375 L-8.1205,-42.1375 L-8.47502,-38.5189 L-7.21587,-38.5067 L-8.79286,-22.6023 L3.39522,-22.6023 Z M7.74153,-36.0495 L6.40903,-22.6267 L18.5971,-22.6145 L18.9761,-26.2942 L11.6412,-26.2942 L12.2525,-32.3943 L14.7096,-32.3943 L12.9615,-27.4922 L17.8392,-27.48 L19.5873,-32.3699 L19.9541,-36.0495 L7.74153,-36.0495 Z M22.9556,-36.0862 L21.6109,-22.6267 L26.4642,-22.6145 L27.4666,-32.3943 L29.8993,-32.3943 L29.6548,-29.9372 L34.5569,-29.9372 L35.1804,-36.0862 L22.9556,-36.0862 Z M-20.6386,-7.3621 L-21.9711,6.06068 L-17.1057,6.06068 L-14.3673,3.6035 L-14.6485,6.07291 L-9.78306,6.07291 L-8.42612,-7.3621 L-20.6386,-7.3621 Z M-14.2573,2.40548 L-16.739,2.39325 L-16.1277,-3.7069 L-13.6705,-3.7069 L-14.2573,2.40548 Z M-5.42453,-7.39878 L-6.76926,6.06068 L-1.91603,6.07291 L-0.913598,-3.7069 L1.51913,-3.7069 L1.27463,-1.24972 L6.17676,-1.24972 L6.80022,-7.39878 L-5.42453,-7.39878 Z M15.7797,6.07291 L16.122,2.40548 L13.6771,2.40548 L14.2883,-3.7069 L16.7944,-3.71912 L17.1611,-7.38655 L14.6673,-7.39878 L14.8995,-9.81928 L10.0096,-9.80705 L8.44486,6.06068 L15.7797,6.07291 Z M-37.9008,21.3253 L-39.7223,39.638 L-34.8446,39.6502 L-33.3899,24.9805 L-30.9572,24.9805 L-31.5684,31.0929 L-32.7786,31.0929 L-33.1576,34.7726 L-27.0575,34.7726 L-25.7127,21.3253 L-37.9008,21.3253 Z M-22.7112,21.3253 L-24.0437,34.7481 L-11.88,34.7603 L-10.5231,21.3253 L-22.7112,21.3253 Z M-16.3665,31.0929 L-18.8115,31.0807 L-18.2002,24.9805 L-15.7675,24.9805 L-16.3665,31.0929 Z M-7.53371,21.2887 L-8.87843,34.7481 L-4.0252,34.7603 L-3.02277,24.9805 L-0.590047,24.9805 L-0.834543,27.4377 L4.06758,27.4377 L4.69105,21.2887 L-7.53371,21.2887 Z M13.6828,34.7603 L14.0251,31.0929 L11.5801,31.0929 L12.1913,24.9805 L14.6974,24.9683 L15.0642,21.3009 L12.5703,21.2887 L12.8026,18.8682 L7.91268,18.8804 L6.34791,34.7481 L13.6828,34.7603 Z M18.0168,21.3253 L16.6843,34.7481 L21.5498,34.7481 L24.2881,32.2909 L24.007,34.7603 L28.8724,34.7603 L30.2294,21.3253 L18.0168,21.3253 Z M24.3982,31.0929 L21.9165,31.0807 L22.5278,24.9805 L24.985,24.9805 L24.3982,31.0929 Z M36.7517,34.7481 L38.7199,15.2374 L32.5586,15.2374 L32.2041,18.8559 L33.4632,18.8682 L31.8862,34.7726 L36.7517,34.7481 Z " fill="#0af2dd" fill-opacity="1.00" />		</g>	</svg>